#!OML:ASF E:\VariousWalksJay\Project 1\Capture day 1\Session 1\Actor2.ASF
:FULLY-SPECIFIED
:DEGREES
564
root 4.11823 15.4691 13.7845 16.7061 -47.8903 -7.96585
lowerback 21.2706 -3.29836 7.54179
upperback 16.0062 -3.88758 -1.98112
thorax 5.29484 -1.52232 -5.78235
lowerneck 3.45641 4.09842 3.40281
upperneck -11.745 5.54198 -2.27898
head -4.31731 2.6906 -1.62728
rclavicle 7.95139e-016 6.12257e-014
rhumerus -37.5366 28.0864 -86.4888
rradius 81.6629
rwrist 12.0145
rhand -46.9442 4.22234
rfingers 7.12502
rthumb -19.6536 -24.8042
lclavicle 7.95139e-016 6.12257e-014
lhumerus 28.8401 -40.6227 53.1231
lradius 84.3515
lwrist 46.3582
lhand -36.2968 4.99408
lfingers 7.12502
lthumb -9.39619 34.7646
rfemur -26.7252 -0.984733 26.731
rtibia 69.6479
rfoot -33.2711 -3.6142
rtoes -31.1551
lfemur -48.0749 6.62295 -16.0865
ltibia 11.1581
lfoot -8.88834 13.7096
ltoes -17.9376
565
root 4.02283 15.5392 13.9492 17.2601 -48.0601 -8.1849
lowerback 20.6729 -3.28146 7.55476
upperback 15.7735 -3.88175 -2.00917
thorax 5.31436 -1.51367 -5.83781
lowerneck 3.40935 4.16503 3.40005
upperneck -11.3844 5.63161 -2.27953
head -4.17468 2.74053 -1.61873
rclavicle -4.37326e-014 3.26007e-014
rhumerus -38.3859 27.6284 -86.6734
rradius 80.3283
rwrist 12.2956
rhand -47.3742 4.70022
rfingers 7.12502
rthumb -20.067 -24.2835
lclavicle -4.37326e-014 3.26007e-014
lhumerus 27.4588 -41.859 54.2419
lradius 84.4081
lwrist 45.8974
lhand -36.3788 4.59894
lfingers 7.12502
lthumb -9.47535 34.3659
rfemur -25.8062 -0.773046 26.4611
rtibia 68.2442
rfoot -32.8337 -3.09755
rtoes -31.3453
lfemur -48.0373 6.72515 -16.081
ltibia 11.5116
lfoot -8.53574 13.5358
ltoes -18.0704
566
root 3.92846 15.608 14.1113 17.7638 -48.2034 -8.33945
lowerback 20.1317 -3.26746 7.53741
upperback 15.5447 -3.87975 -2.05236
thorax 5.31236 -1.5096 -5.88967
lowerneck 3.3374 4.22282 3.4305
upperneck -11.0364 5.71134 -2.27116
head -4.0323 2.78328 -1.61191
rclavicle 5.56597e-015 -3.73715e-014
rhumerus -39.1995 27.1385 -86.8458
rradius 79.0568
rwrist 12.5327
rhand -47.7309 5.16237
rfingers 7.12502
rthumb -20.4098 -23.785
lclavicle 5.56597e-015 -3.73715e-014
lhumerus 26.1642 -43.0953 55.2741
lradius 84.4417
lwrist 45.3796
lhand -36.5054 4.22378
lfingers 7.12502
lthumb -9.59749 33.9852
rfemur -24.8927 -0.503609 26.1734
rtibia 66.8277
rfoot -32.3907 -2.68574
rtoes -31.5037
lfemur -48.1288 7.01905 -16.2937
ltibia 11.9727
lfoot -8.11359 13.1753
ltoes -18.0176
567
root 3.83473 15.6754 14.2702 18.2113 -48.3119 -8.43634
lowerback 19.6577 -3.25721 7.49046
upperback 15.3223 -3.88179 -2.10485
thorax 5.28631 -1.51067 -5.93144
lowerneck 3.24988 4.27199 3.48821
upperneck -10.7112 5.7815 -2.25044
head -3.89586 2.81916 -1.60532
rclavicle -3.65764e-014 2.14687e-014
rhumerus -39.9816 26.6196 -87.0061
rradius 77.8416
rwrist 12.7304
rhand -48.0314 5.61427
rfingers 7.12502
rthumb -20.6985 -23.3019
lclavicle -3.65764e-014 2.14687e-014
lhumerus 24.9709 -44.3275 56.2068
lradius 84.4546
lwrist 44.8084
lhand -36.6543 3.88107
lfingers 7.12502
lthumb -9.74111 33.6358
rfemur -23.9766 -0.178112 25.8826
rtibia 65.4051
rfoot -31.9446 -2.40685
rtoes -31.6655
lfemur -48.2913 7.47509 -16.6956
ltibia 12.5233
lfoot -7.66712 12.6576
ltoes -17.6779
568
root 3.74129 15.7401 14.4252 18.6174 -48.3808 -8.48471
lowerback 19.2322 -3.24916 7.4115
upperback 15.11 -3.8877 -2.16008
thorax 5.24956 -1.51663 -5.95566
lowerneck 3.16283 4.31442 3.55376
upperneck -10.432 5.84464 -2.20752
head -3.77726 2.84962 -1.59368
rclavicle -5.56597e-015 -4.92986e-014
rhumerus -40.7312 26.0842 -87.1524
rradius 76.7007
rwrist 12.8469
rhand -48.2611 6.04049
rfingers 7.12502
rthumb -20.9193 -22.8515
lclavicle -5.56597e-015 -4.92986e-014
lhumerus 23.8818 -45.5304 57.0529
lradius 84.4455
lwrist 44.1956
lhand -36.7813 3.58311
lfingers 7.12502
lthumb -9.86368 33.3321
rfemur -23.0742 0.208899 25.6034
rtibia 63.9901
rfoot -31.5 -2.26133
rtoes -31.802
lfemur -48.5132 8.07345 -17.2638
ltibia 13.1411
lfoot -7.20214 12.0173
ltoes -17.1361
569
root 3.64812 15.8011 14.5762 19.0045 -48.4097 -8.50357
lowerback 18.8428 -3.23907 7.31538
upperback 14.9053 -3.89064 -2.21353
thorax 5.20618 -1.5228 -5.9674
lowerneck 3.08654 4.34421 3.62087
upperneck -10.2066 5.89318 -2.13675
head -3.68155 2.87088 -1.57447
rclavicle -3.65764e-014 8.34896e-014
rhumerus -41.4565 25.5263 -87.2868
rradius 75.6195
rwrist 12.9205
rhand -48.4587 6.48471
rfingers 7.12502
rthumb -21.1091 -22.3862
lclavicle -3.65764e-014 8.34896e-014
lhumerus 22.9012 -46.6998 57.8203
lradius 84.4194
lwrist 43.5786
lhand -36.8669 3.33535
lfingers 7.12502
lthumb -9.94622 33.0804
rfemur -22.2014 0.650246 25.3533
rtibia 62.5931
rfoot -31.0533 -2.25749
rtoes -31.934
lfemur -48.7963 8.77451 -17.9535
ltibia 13.7991
lfoot -6.66565 11.3348
ltoes -16.6717
570
root 3.55528 15.8586 14.7231 19.3871 -48.3969 -8.51377
lowerback 18.4819 -3.22693 7.22145
upperback 14.7102 -3.88896 -2.26394
thorax 5.16217 -1.52658 -5.97694
lowerneck 3.04078 4.35864 3.69763
upperneck -10.053 5.92392 -2.04774
head -3.61825 2.88124 -1.55346
rclavicle 2.22639e-014 1.66979e-014
rhumerus -42.1588 24.9435 -87.4165
rradius 74.5938
rwrist 12.974
rhand -48.6329 6.91861
rfingers 7.12502
rthumb -21.2765 -21.9335
lclavicle 2.22639e-014 1.66979e-014
lhumerus 22.0292 -47.8248 58.5123
lradius 84.3842
lwrist 42.9975
lhand -36.894 3.13563
lfingers 7.12502
lthumb -9.97242 32.8794
rfemur -21.3576 1.13054 25.1482
rtibia 61.2202
rfoot -30.6034 -2.3667
rtoes -32.0083
lfemur -49.1074 9.48016 -18.6636
ltibia 14.4712
lfoot -6.09544 10.7197
ltoes -16.3088
571
root 3.463 15.9126 14.8668 19.7699 -48.3451 -8.52678
lowerback 18.1448 -3.21453 7.13872
upperback 14.5281 -3.88475 -2.30408
thorax 5.12325 -1.52849 -5.98155
lowerneck 3.02217 4.3595 3.7536
upperneck -9.97028 5.93788 -1.93551
head -3.58702 2.88214 -1.52365
rclavicle 7.95139e-015 -7.95139e-016
rhumerus -42.8328 24.358 -87.5307
rradius 73.6226
rwrist 13.0073
rhand -48.7942 7.35663
rfingers 7.12502
rthumb -21.4314 -21.478
lclavicle 7.95139e-015 -7.95139e-016
lhumerus 21.2591 -48.8886 59.146
lradius 84.3485
lwrist 42.4917
lhand -36.8734 2.96254
lfingers 7.12502
lthumb -9.95251 32.7073
rfemur -20.5394 1.62866 24.9945
rtibia 59.8754
rfoot -30.146 -2.58084
rtoes -32.0505
lfemur -49.4291 10.1084 -19.3127
ltibia 15.1464
lfoot -5.53858 10.221
ltoes -16.0082
572
root 3.37184 15.9633 15.0076 20.1733 -48.2663 -8.55339
lowerback 17.8151 -3.19739 7.08047
upperback 14.3548 -3.87156 -2.33698
thorax 5.09319 -1.52392 -5.99364
lowerneck 3.03311 4.34305 3.80198
upperneck -9.95206 5.92993 -1.81443
head -3.58534 2.87111 -1.49177
rclavicle -6.20208e-014 3.10104e-014
rhumerus -43.4872 23.7693 -87.6361
rradius 72.702
rwrist 13.0567
rhand -48.9635 7.79807
rfingers 7.12502
rthumb -21.594 -21.018
lclavicle -6.20208e-014 3.10104e-014
lhumerus 20.5807 -49.8936 59.7337
lradius 84.3167
lwrist 42.0737
lhand -36.8126 2.80657
lfingers 7.12502
lthumb -9.89382 32.5541
rfemur -19.7631 2.12715 24.8918
rtibia 58.5626
rfoot -29.6678 -2.86154
rtoes -32.0131
lfemur -49.7714 10.6564 -19.8944
ltibia 15.8162
lfoot -5.00395 9.79759
ltoes -15.7971
